<svg width="14" height="15" viewBox="0 0 14 15" fill="none" xmlns="http://www.w3.org/2000/svg">
<path d="M9.40003 7.21593L8.65815 7.32594L9.40003 7.21593ZM7.37803 5.19393L7.26802 5.93582L7.37803 5.19393ZM4.00001 2.34375H10V0.84375H4.00001V2.34375ZM10 2.34375C11.2427 2.34375 12.25 3.35111 12.25 4.59375H13.75C13.75 2.52268 12.0711 0.84375 10 0.84375V2.34375ZM12.25 4.59375V10.5938H13.75V4.59375H12.25ZM12.25 10.5938C12.25 11.8364 11.2427 12.8438 10 12.8438V14.3438C12.0711 14.3438 13.75 12.6648 13.75 10.5938H12.25ZM10 12.8438H4.00001V14.3438H10V12.8438ZM4.00001 12.8438C2.75737 12.8438 1.75001 11.8364 1.75001 10.5938H0.250013C0.250013 12.6648 1.92895 14.3438 4.00001 14.3438V12.8438ZM1.75001 10.5938V4.59375H0.250013V10.5938H1.75001ZM1.75001 4.59375C1.75001 3.35111 2.75737 2.34375 4.00001 2.34375V0.84375C1.92895 0.84375 0.250013 2.52268 0.250013 4.59375H1.75001ZM8.65815 7.32594C8.70905 7.66924 8.65041 8.01986 8.49057 8.32791L9.82201 9.01877C10.1272 8.43066 10.2391 7.76131 10.1419 7.10592L8.65815 7.32594ZM8.49057 8.32791C8.33073 8.63597 8.07782 8.88578 7.76782 9.04181L8.4422 10.3817C9.03402 10.0838 9.51685 9.60687 9.82201 9.01877L8.49057 8.32791ZM7.76782 9.04181C7.45781 9.19784 7.1065 9.25215 6.76386 9.19702L6.52555 10.678C7.1797 10.7832 7.85038 10.6795 8.4422 10.3817L7.76782 9.04181ZM6.76386 9.19702C6.42121 9.14188 6.10467 8.9801 5.85927 8.7347L4.79861 9.79536C5.26711 10.2639 5.87141 10.5727 6.52555 10.678L6.76386 9.19702ZM5.85927 8.7347C5.61386 8.48929 5.45208 8.17275 5.39695 7.83011L3.916 8.06841C4.02126 8.72256 4.33011 9.32686 4.79861 9.79536L5.85927 8.7347ZM5.39695 7.83011C5.34181 7.48746 5.39612 7.13615 5.55215 6.82615L4.2123 6.15176C3.91442 6.74358 3.81074 7.41427 3.916 8.06841L5.39695 7.83011ZM5.55215 6.82615C5.70819 6.51615 5.958 6.26324 6.26605 6.10339L5.5752 4.77196C4.98709 5.07711 4.51018 5.55994 4.2123 6.15176L5.55215 6.82615ZM6.26605 6.10339C6.57411 5.94355 6.92472 5.88491 7.26802 5.93582L7.48805 4.45204C6.83265 4.35486 6.1633 4.4668 5.5752 4.77196L6.26605 6.10339ZM7.26802 5.93582C7.6182 5.98775 7.9424 6.15092 8.19272 6.40125L9.25338 5.34058C8.77549 4.8627 8.15657 4.55118 7.48805 4.45204L7.26802 5.93582ZM8.19272 6.40125C8.44304 6.65157 8.60622 6.97576 8.65815 7.32594L10.1419 7.10592C10.0428 6.43739 9.73127 5.81847 9.25338 5.34058L8.19272 6.40125Z" fill="white"/>
</svg>
