<svg width="30" height="30" viewBox="0 0 30 30" fill="none" xmlns="http://www.w3.org/2000/svg">
<path d="M15 16.2945L14.5699 16.9089C14.8281 17.0897 15.1719 17.0897 15.4301 16.9089L15 16.2945ZM28.25 15.1943C28.25 22.5121 22.3178 28.4443 15 28.4443V29.9443C23.1462 29.9443 29.75 23.3405 29.75 15.1943H28.25ZM15 28.4443C7.68223 28.4443 1.75 22.5121 1.75 15.1943H0.25C0.25 23.3405 6.8538 29.9443 15 29.9443V28.4443ZM1.75 15.1943C1.75 7.87656 7.68223 1.94434 15 1.94434V0.444336C6.8538 0.444336 0.25 7.04814 0.25 15.1943H1.75ZM15 1.94434C22.3178 1.94434 28.25 7.87656 28.25 15.1943H29.75C29.75 7.04814 23.1462 0.444336 15 0.444336V1.94434ZM9.4 10.7441H20.6V9.24414H9.4V10.7441ZM20.6 10.7441C20.9558 10.7441 21.25 11.0384 21.25 11.3941H22.75C22.75 10.2099 21.7842 9.24414 20.6 9.24414V10.7441ZM21.25 11.3941V19.7941H22.75V11.3941H21.25ZM21.25 19.7941C21.25 20.1499 20.9558 20.4441 20.6 20.4441V21.9441C21.7842 21.9441 22.75 20.9784 22.75 19.7941H21.25ZM20.6 20.4441H9.4V21.9441H20.6V20.4441ZM9.4 20.4441C9.04421 20.4441 8.75 20.1499 8.75 19.7941H7.25C7.25 20.9784 8.21578 21.9441 9.4 21.9441V20.4441ZM8.75 19.7941V11.3941H7.25V19.7941H8.75ZM8.75 11.3941C8.75 11.0384 9.04421 10.7441 9.4 10.7441V9.24414C8.21579 9.24414 7.25 10.2099 7.25 11.3941H8.75ZM21.5699 10.7797L14.5699 15.6801L15.4301 16.9089L22.4301 12.0085L21.5699 10.7797ZM15.4301 15.6801L8.43012 10.7797L7.56988 12.0085L14.5699 16.9089L15.4301 15.6801Z" fill="white"/>
</svg>
